solid Object01
  facet normal 0 0 1
    outer loop
      vertex 0.5625 3.125 0
      vertex 0.625 2.5 0
      vertex 0.6875 3.125 0
    endloop
  endfacet
  facet normal 0 0 1
    outer loop
      vertex 0.6875 3.125 0
      vertex 0.625 2.5 0
      vertex 0.6875 1.875 0
    endloop
  endfacet
  facet normal 0 0 1
    outer loop
      vertex 0.6875 1.875 0
      vertex 0.625 2.5 0
      vertex 0.5625 1.875 0
    endloop
  endfacet
  facet normal 0 0 1
    outer loop
      vertex 0.5625 1.875 0
      vertex 0.625 2.5 0
      vertex 0.5625 3.125 0
    endloop
  endfacet
  facet normal 0 0 1
    outer loop
      vertex -0.625 1.9375 0
      vertex 0.0 1.875 0
      vertex 0.625 1.9375 0
    endloop
  endfacet
  facet normal 0 0 1
    outer loop
      vertex 0.625 1.9375 0
      vertex 0.0 1.875 0
      vertex 0.625 1.8125 0
    endloop
  endfacet
  facet normal 0 0 1
    outer loop
      vertex 0.625 1.8125 0
      vertex 0.0 1.875 0
      vertex -0.625 1.8125 0
    endloop
  endfacet
  facet normal 0 0 1
    outer loop
      vertex -0.625 1.8125 0
      vertex 0.0 1.875 0
      vertex -0.625 1.9375 0
    endloop
  endfacet
  facet normal 0 0 1
    outer loop
      vertex -0.6875 3.125 0
      vertex -0.625 2.5 0
      vertex -0.5625 3.125 0
    endloop
  endfacet
  facet normal 0 0 1
    outer loop
      vertex -0.5625 3.125 0
      vertex -0.625 2.5 0
      vertex -0.5625 1.875 0
    endloop
  endfacet
  facet normal 0 0 1
    outer loop
      vertex -0.5625 1.875 0
      vertex -0.625 2.5 0
      vertex -0.6875 1.875 0
    endloop
  endfacet
  facet normal 0 0 1
    outer loop
      vertex -0.6875 1.875 0
      vertex -0.625 2.5 0
      vertex -0.6875 3.125 0
    endloop
  endfacet
  facet normal 0 0 1
    outer loop
      vertex -0.6875 0.625 0
      vertex -0.625 0.0 0
      vertex -0.5625 0.625 0
    endloop
  endfacet
  facet normal 0 0 1
    outer loop
      vertex -0.5625 0.625 0
      vertex -0.625 0.0 0
      vertex -0.5625 -0.625 0
    endloop
  endfacet
  facet normal 0 0 1
    outer loop
      vertex -0.5625 -0.625 0
      vertex -0.625 0.0 0
      vertex -0.6875 -0.625 0
    endloop
  endfacet
  facet normal 0 0 1
    outer loop
      vertex -0.6875 -0.625 0
      vertex -0.625 0.0 0
      vertex -0.6875 0.625 0
    endloop
  endfacet
  facet normal 0 0 1
    outer loop
      vertex -0.625 0.6875 0
      vertex 0.0 0.625 0
      vertex 0.625 0.6875 0
    endloop
  endfacet
  facet normal 0 0 1
    outer loop
      vertex 0.625 0.6875 0
      vertex 0.0 0.625 0
      vertex 0.625 0.5625 0
    endloop
  endfacet
  facet normal 0 0 1
    outer loop
      vertex 0.625 0.5625 0
      vertex 0.0 0.625 0
      vertex -0.625 0.5625 0
    endloop
  endfacet
  facet normal 0 0 1
    outer loop
      vertex -0.625 0.5625 0
      vertex 0.0 0.625 0
      vertex -0.625 0.6875 0
    endloop
  endfacet
  facet normal 0 0 1
    outer loop
      vertex 0.5625 0.625 0
      vertex 0.625 0.0 0
      vertex 0.6875 0.625 0
    endloop
  endfacet
  facet normal 0 0 1
    outer loop
      vertex 0.6875 0.625 0
      vertex 0.625 0.0 0
      vertex 0.6875 -0.625 0
    endloop
  endfacet
  facet normal 0 0 1
    outer loop
      vertex 0.6875 -0.625 0
      vertex 0.625 0.0 0
      vertex 0.5625 -0.625 0
    endloop
  endfacet
  facet normal 0 0 1
    outer loop
      vertex 0.5625 -0.625 0
      vertex 0.625 0.0 0
      vertex 0.5625 0.625 0
    endloop
  endfacet
  facet normal 0 0 1
    outer loop
      vertex 1.875 3.1875 0
      vertex 2.5 3.125 0
      vertex 3.125 3.1875 0
    endloop
  endfacet
  facet normal 0 0 1
    outer loop
      vertex 3.125 3.1875 0
      vertex 2.5 3.125 0
      vertex 3.125 3.0625 0
    endloop
  endfacet
  facet normal 0 0 1
    outer loop
      vertex 3.125 3.0625 0
      vertex 2.5 3.125 0
      vertex 1.875 3.0625 0
    endloop
  endfacet
  facet normal 0 0 1
    outer loop
      vertex 1.875 3.0625 0
      vertex 2.5 3.125 0
      vertex 1.875 3.1875 0
    endloop
  endfacet
  facet normal 0 0 1
    outer loop
      vertex 3.0625 3.125 0
      vertex 3.125 2.5 0
      vertex 3.1875 3.125 0
    endloop
  endfacet
  facet normal 0 0 1
    outer loop
      vertex 3.1875 3.125 0
      vertex 3.125 2.5 0
      vertex 3.1875 1.875 0
    endloop
  endfacet
  facet normal 0 0 1
    outer loop
      vertex 3.1875 1.875 0
      vertex 3.125 2.5 0
      vertex 3.0625 1.875 0
    endloop
  endfacet
  facet normal 0 0 1
    outer loop
      vertex 3.0625 1.875 0
      vertex 3.125 2.5 0
      vertex 3.0625 3.125 0
    endloop
  endfacet
  facet normal 0 0 1
    outer loop
      vertex 1.875 1.9375 0
      vertex 2.5 1.875 0
      vertex 3.125 1.9375 0
    endloop
  endfacet
  facet normal 0 0 1
    outer loop
      vertex 3.125 1.9375 0
      vertex 2.5 1.875 0
      vertex 3.125 1.8125 0
    endloop
  endfacet
  facet normal 0 0 1
    outer loop
      vertex 3.125 1.8125 0
      vertex 2.5 1.875 0
      vertex 1.875 1.8125 0
    endloop
  endfacet
  facet normal 0 0 1
    outer loop
      vertex 1.875 1.8125 0
      vertex 2.5 1.875 0
      vertex 1.875 1.9375 0
    endloop
  endfacet
  facet normal 0 0 1
    outer loop
      vertex 1.875 0.6875 0
      vertex 2.5 0.625 0
      vertex 3.125 0.6875 0
    endloop
  endfacet
  facet normal 0 0 1
    outer loop
      vertex 3.125 0.6875 0
      vertex 2.5 0.625 0
      vertex 3.125 0.5625 0
    endloop
  endfacet
  facet normal 0 0 1
    outer loop
      vertex 3.125 0.5625 0
      vertex 2.5 0.625 0
      vertex 1.875 0.5625 0
    endloop
  endfacet
  facet normal 0 0 1
    outer loop
      vertex 1.875 0.5625 0
      vertex 2.5 0.625 0
      vertex 1.875 0.6875 0
    endloop
  endfacet
  facet normal 0 0 1
    outer loop
      vertex 3.0625 0.625 0
      vertex 3.125 0.0 0
      vertex 3.1875 0.625 0
    endloop
  endfacet
  facet normal 0 0 1
    outer loop
      vertex 3.1875 0.625 0
      vertex 3.125 0.0 0
      vertex 3.1875 -0.625 0
    endloop
  endfacet
  facet normal 0 0 1
    outer loop
      vertex 3.1875 -0.625 0
      vertex 3.125 0.0 0
      vertex 3.0625 -0.625 0
    endloop
  endfacet
  facet normal 0 0 1
    outer loop
      vertex 3.0625 -0.625 0
      vertex 3.125 0.0 0
      vertex 3.0625 0.625 0
    endloop
  endfacet
  facet normal 0 0 1
    outer loop
      vertex 1.875 -0.5625 0
      vertex 2.5 -0.625 0
      vertex 3.125 -0.5625 0
    endloop
  endfacet
  facet normal 0 0 1
    outer loop
      vertex 3.125 -0.5625 0
      vertex 2.5 -0.625 0
      vertex 3.125 -0.6875 0
    endloop
  endfacet
  facet normal 0 0 1
    outer loop
      vertex 3.125 -0.6875 0
      vertex 2.5 -0.625 0
      vertex 1.875 -0.6875 0
    endloop
  endfacet
  facet normal 0 0 1
    outer loop
      vertex 1.875 -0.6875 0
      vertex 2.5 -0.625 0
      vertex 1.875 -0.5625 0
    endloop
  endfacet
  facet normal 0 0 1
    outer loop
      vertex 0.625 3.1875 0
      vertex 1.25 3.125 0
      vertex 1.875 3.1875 0
    endloop
  endfacet
  facet normal 0 0 1
    outer loop
      vertex 1.875 3.1875 0
      vertex 1.25 3.125 0
      vertex 1.875 3.0625 0
    endloop
  endfacet
  facet normal 0 0 1
    outer loop
      vertex 1.875 3.0625 0
      vertex 1.25 3.125 0
      vertex 0.625 3.0625 0
    endloop
  endfacet
  facet normal 0 0 1
    outer loop
      vertex 0.625 3.0625 0
      vertex 1.25 3.125 0
      vertex 0.625 3.1875 0
    endloop
  endfacet
  facet normal 0 0 1
    outer loop
      vertex 1.8125 1.875 0
      vertex 1.875 1.25 0
      vertex 1.9375 1.875 0
    endloop
  endfacet
  facet normal 0 0 1
    outer loop
      vertex 1.9375 1.875 0
      vertex 1.875 1.25 0
      vertex 1.9375 0.625 0
    endloop
  endfacet
  facet normal 0 0 1
    outer loop
      vertex 1.9375 0.625 0
      vertex 1.875 1.25 0
      vertex 1.8125 0.625 0
    endloop
  endfacet
  facet normal 0 0 1
    outer loop
      vertex 1.8125 0.625 0
      vertex 1.875 1.25 0
      vertex 1.8125 1.875 0
    endloop
  endfacet
  facet normal 0 0 1
    outer loop
      vertex 0.625 -0.5625 0
      vertex 1.25 -0.625 0
      vertex 1.875 -0.5625 0
    endloop
  endfacet
  facet normal 0 0 1
    outer loop
      vertex 1.875 -0.5625 0
      vertex 1.25 -0.625 0
      vertex 1.875 -0.6875 0
    endloop
  endfacet
  facet normal 0 0 1
    outer loop
      vertex 1.875 -0.6875 0
      vertex 1.25 -0.625 0
      vertex 0.625 -0.6875 0
    endloop
  endfacet
  facet normal 0 0 1
    outer loop
      vertex 0.625 -0.6875 0
      vertex 1.25 -0.625 0
      vertex 0.625 -0.5625 0
    endloop
  endfacet
  facet normal 0 0 1
    outer loop
      vertex 6.8125 0.625 0
      vertex 6.875 0.0 0
      vertex 6.9375 0.625 0
    endloop
  endfacet
  facet normal 0 0 1
    outer loop
      vertex 6.9375 0.625 0
      vertex 6.875 0.0 0
      vertex 6.9375 -0.625 0
    endloop
  endfacet
  facet normal 0 0 1
    outer loop
      vertex 6.9375 -0.625 0
      vertex 6.875 0.0 0
      vertex 6.8125 -0.625 0
    endloop
  endfacet
  facet normal 0 0 1
    outer loop
      vertex 6.8125 -0.625 0
      vertex 6.875 0.0 0
      vertex 6.8125 0.625 0
    endloop
  endfacet
  facet normal 0 0 1
    outer loop
      vertex 6.875 0.6875 0
      vertex 7.5 0.625 0
      vertex 8.125 0.6875 0
    endloop
  endfacet
  facet normal 0 0 1
    outer loop
      vertex 8.125 0.6875 0
      vertex 7.5 0.625 0
      vertex 8.125 0.5625 0
    endloop
  endfacet
  facet normal 0 0 1
    outer loop
      vertex 8.125 0.5625 0
      vertex 7.5 0.625 0
      vertex 6.875 0.5625 0
    endloop
  endfacet
  facet normal 0 0 1
    outer loop
      vertex 6.875 0.5625 0
      vertex 7.5 0.625 0
      vertex 6.875 0.6875 0
    endloop
  endfacet
  facet normal 0 0 1
    outer loop
      vertex 8.0625 0.625 0
      vertex 8.125 0.0 0
      vertex 8.1875 0.625 0
    endloop
  endfacet
  facet normal 0 0 1
    outer loop
      vertex 8.1875 0.625 0
      vertex 8.125 0.0 0
      vertex 8.1875 -0.625 0
    endloop
  endfacet
  facet normal 0 0 1
    outer loop
      vertex 8.1875 -0.625 0
      vertex 8.125 0.0 0
      vertex 8.0625 -0.625 0
    endloop
  endfacet
  facet normal 0 0 1
    outer loop
      vertex 8.0625 -0.625 0
      vertex 8.125 0.0 0
      vertex 8.0625 0.625 0
    endloop
  endfacet
  facet normal 0 0 1
    outer loop
      vertex 8.0625 3.125 0
      vertex 8.125 2.5 0
      vertex 8.1875 3.125 0
    endloop
  endfacet
  facet normal 0 0 1
    outer loop
      vertex 8.1875 3.125 0
      vertex 8.125 2.5 0
      vertex 8.1875 1.875 0
    endloop
  endfacet
  facet normal 0 0 1
    outer loop
      vertex 8.1875 1.875 0
      vertex 8.125 2.5 0
      vertex 8.0625 1.875 0
    endloop
  endfacet
  facet normal 0 0 1
    outer loop
      vertex 8.0625 1.875 0
      vertex 8.125 2.5 0
      vertex 8.0625 3.125 0
    endloop
  endfacet
  facet normal 0 0 1
    outer loop
      vertex 6.875 1.9375 0
      vertex 7.5 1.875 0
      vertex 8.125 1.9375 0
    endloop
  endfacet
  facet normal 0 0 1
    outer loop
      vertex 8.125 1.9375 0
      vertex 7.5 1.875 0
      vertex 8.125 1.8125 0
    endloop
  endfacet
  facet normal 0 0 1
    outer loop
      vertex 8.125 1.8125 0
      vertex 7.5 1.875 0
      vertex 6.875 1.8125 0
    endloop
  endfacet
  facet normal 0 0 1
    outer loop
      vertex 6.875 1.8125 0
      vertex 7.5 1.875 0
      vertex 6.875 1.9375 0
    endloop
  endfacet
  facet normal 0 0 1
    outer loop
      vertex 6.8125 3.125 0
      vertex 6.875 2.5 0
      vertex 6.9375 3.125 0
    endloop
  endfacet
  facet normal 0 0 1
    outer loop
      vertex 6.9375 3.125 0
      vertex 6.875 2.5 0
      vertex 6.9375 1.875 0
    endloop
  endfacet
  facet normal 0 0 1
    outer loop
      vertex 6.9375 1.875 0
      vertex 6.875 2.5 0
      vertex 6.8125 1.875 0
    endloop
  endfacet
  facet normal 0 0 1
    outer loop
      vertex 6.8125 1.875 0
      vertex 6.875 2.5 0
      vertex 6.8125 3.125 0
    endloop
  endfacet
  facet normal 0 0 1
    outer loop
      vertex 4.375 -0.5625 0
      vertex 5.0 -0.625 0
      vertex 5.625 -0.5625 0
    endloop
  endfacet
  facet normal 0 0 1
    outer loop
      vertex 5.625 -0.5625 0
      vertex 5.0 -0.625 0
      vertex 5.625 -0.6875 0
    endloop
  endfacet
  facet normal 0 0 1
    outer loop
      vertex 5.625 -0.6875 0
      vertex 5.0 -0.625 0
      vertex 4.375 -0.6875 0
    endloop
  endfacet
  facet normal 0 0 1
    outer loop
      vertex 4.375 -0.6875 0
      vertex 5.0 -0.625 0
      vertex 4.375 -0.5625 0
    endloop
  endfacet
  facet normal 0 0 1
    outer loop
      vertex 4.3125 0.625 0
      vertex 4.375 0.0 0
      vertex 4.4375 0.625 0
    endloop
  endfacet
  facet normal 0 0 1
    outer loop
      vertex 4.4375 0.625 0
      vertex 4.375 0.0 0
      vertex 4.4375 -0.625 0
    endloop
  endfacet
  facet normal 0 0 1
    outer loop
      vertex 4.4375 -0.625 0
      vertex 4.375 0.0 0
      vertex 4.3125 -0.625 0
    endloop
  endfacet
  facet normal 0 0 1
    outer loop
      vertex 4.3125 -0.625 0
      vertex 4.375 0.0 0
      vertex 4.3125 0.625 0
    endloop
  endfacet
  facet normal 0 0 1
    outer loop
      vertex 4.375 0.6875 0
      vertex 5.0 0.625 0
      vertex 5.625 0.6875 0
    endloop
  endfacet
  facet normal 0 0 1
    outer loop
      vertex 5.625 0.6875 0
      vertex 5.0 0.625 0
      vertex 5.625 0.5625 0
    endloop
  endfacet
  facet normal 0 0 1
    outer loop
      vertex 5.625 0.5625 0
      vertex 5.0 0.625 0
      vertex 4.375 0.5625 0
    endloop
  endfacet
  facet normal 0 0 1
    outer loop
      vertex 4.375 0.5625 0
      vertex 5.0 0.625 0
      vertex 4.375 0.6875 0
    endloop
  endfacet
  facet normal 0 0 1
    outer loop
      vertex 4.375 1.9375 0
      vertex 5.0 1.875 0
      vertex 5.625 1.9375 0
    endloop
  endfacet
  facet normal 0 0 1
    outer loop
      vertex 5.625 1.9375 0
      vertex 5.0 1.875 0
      vertex 5.625 1.8125 0
    endloop
  endfacet
  facet normal 0 0 1
    outer loop
      vertex 5.625 1.8125 0
      vertex 5.0 1.875 0
      vertex 4.375 1.8125 0
    endloop
  endfacet
  facet normal 0 0 1
    outer loop
      vertex 4.375 1.8125 0
      vertex 5.0 1.875 0
      vertex 4.375 1.9375 0
    endloop
  endfacet
  facet normal 0 0 1
    outer loop
      vertex 4.3125 3.125 0
      vertex 4.375 2.5 0
      vertex 4.4375 3.125 0
    endloop
  endfacet
  facet normal 0 0 1
    outer loop
      vertex 4.4375 3.125 0
      vertex 4.375 2.5 0
      vertex 4.4375 1.875 0
    endloop
  endfacet
  facet normal 0 0 1
    outer loop
      vertex 4.4375 1.875 0
      vertex 4.375 2.5 0
      vertex 4.3125 1.875 0
    endloop
  endfacet
  facet normal 0 0 1
    outer loop
      vertex 4.3125 1.875 0
      vertex 4.375 2.5 0
      vertex 4.3125 3.125 0
    endloop
  endfacet
  facet normal 0 0 1
    outer loop
      vertex 4.375 3.1875 0
      vertex 5.0 3.125 0
      vertex 5.625 3.1875 0
    endloop
  endfacet
  facet normal 0 0 1
    outer loop
      vertex 5.625 3.1875 0
      vertex 5.0 3.125 0
      vertex 5.625 3.0625 0
    endloop
  endfacet
  facet normal 0 0 1
    outer loop
      vertex 5.625 3.0625 0
      vertex 5.0 3.125 0
      vertex 4.375 3.0625 0
    endloop
  endfacet
  facet normal 0 0 1
    outer loop
      vertex 4.375 3.0625 0
      vertex 5.0 3.125 0
      vertex 4.375 3.1875 0
    endloop
  endfacet
  facet normal 0 0 1
    outer loop
      vertex 5.625 -0.5625 0
      vertex 6.25 -0.625 0
      vertex 6.875 -0.5625 0
    endloop
  endfacet
  facet normal 0 0 1
    outer loop
      vertex 6.875 -0.5625 0
      vertex 6.25 -0.625 0
      vertex 6.875 -0.6875 0
    endloop
  endfacet
  facet normal 0 0 1
    outer loop
      vertex 6.875 -0.6875 0
      vertex 6.25 -0.625 0
      vertex 5.625 -0.6875 0
    endloop
  endfacet
  facet normal 0 0 1
    outer loop
      vertex 5.625 -0.6875 0
      vertex 6.25 -0.625 0
      vertex 5.625 -0.5625 0
    endloop
  endfacet
  facet normal 0 0 1
    outer loop
      vertex 5.5625 1.875 0
      vertex 5.625 1.25 0
      vertex 5.6875 1.875 0
    endloop
  endfacet
  facet normal 0 0 1
    outer loop
      vertex 5.6875 1.875 0
      vertex 5.625 1.25 0
      vertex 5.6875 0.625 0
    endloop
  endfacet
  facet normal 0 0 1
    outer loop
      vertex 5.6875 0.625 0
      vertex 5.625 1.25 0
      vertex 5.5625 0.625 0
    endloop
  endfacet
  facet normal 0 0 1
    outer loop
      vertex 5.5625 0.625 0
      vertex 5.625 1.25 0
      vertex 5.5625 1.875 0
    endloop
  endfacet
  facet normal 0 0 1
    outer loop
      vertex 5.625 3.1875 0
      vertex 6.25 3.125 0
      vertex 6.875 3.1875 0
    endloop
  endfacet
  facet normal 0 0 1
    outer loop
      vertex 6.875 3.1875 0
      vertex 6.25 3.125 0
      vertex 6.875 3.0625 0
    endloop
  endfacet
  facet normal 0 0 1
    outer loop
      vertex 6.875 3.0625 0
      vertex 6.25 3.125 0
      vertex 5.625 3.0625 0
    endloop
  endfacet
  facet normal 0 0 1
    outer loop
      vertex 5.625 3.0625 0
      vertex 6.25 3.125 0
      vertex 5.625 3.1875 0
    endloop
  endfacet
  facet normal 0 0 1
    outer loop
      vertex -0.625 5.6875 0
      vertex 0.0 5.625 0
      vertex 0.625 5.6875 0
    endloop
  endfacet
  facet normal 0 0 1
    outer loop
      vertex 0.625 5.6875 0
      vertex 0.0 5.625 0
      vertex 0.625 5.5625 0
    endloop
  endfacet
  facet normal 0 0 1
    outer loop
      vertex 0.625 5.5625 0
      vertex 0.0 5.625 0
      vertex -0.625 5.5625 0
    endloop
  endfacet
  facet normal 0 0 1
    outer loop
      vertex -0.625 5.5625 0
      vertex 0.0 5.625 0
      vertex -0.625 5.6875 0
    endloop
  endfacet
  facet normal 0 0 1
    outer loop
      vertex 0.5625 5.625 0
      vertex 0.625 5.0 0
      vertex 0.6875 5.625 0
    endloop
  endfacet
  facet normal 0 0 1
    outer loop
      vertex 0.6875 5.625 0
      vertex 0.625 5.0 0
      vertex 0.6875 4.375 0
    endloop
  endfacet
  facet normal 0 0 1
    outer loop
      vertex 0.6875 4.375 0
      vertex 0.625 5.0 0
      vertex 0.5625 4.375 0
    endloop
  endfacet
  facet normal 0 0 1
    outer loop
      vertex 0.5625 4.375 0
      vertex 0.625 5.0 0
      vertex 0.5625 5.625 0
    endloop
  endfacet
  facet normal 0 0 1
    outer loop
      vertex -0.625 4.4375 0
      vertex 0.0 4.375 0
      vertex 0.625 4.4375 0
    endloop
  endfacet
  facet normal 0 0 1
    outer loop
      vertex 0.625 4.4375 0
      vertex 0.0 4.375 0
      vertex 0.625 4.3125 0
    endloop
  endfacet
  facet normal 0 0 1
    outer loop
      vertex 0.625 4.3125 0
      vertex 0.0 4.375 0
      vertex -0.625 4.3125 0
    endloop
  endfacet
  facet normal 0 0 1
    outer loop
      vertex -0.625 4.3125 0
      vertex 0.0 4.375 0
      vertex -0.625 4.4375 0
    endloop
  endfacet
  facet normal 0 0 1
    outer loop
      vertex 1.875 4.4375 0
      vertex 2.5 4.375 0
      vertex 3.125 4.4375 0
    endloop
  endfacet
  facet normal 0 0 1
    outer loop
      vertex 3.125 4.4375 0
      vertex 2.5 4.375 0
      vertex 3.125 4.3125 0
    endloop
  endfacet
  facet normal 0 0 1
    outer loop
      vertex 3.125 4.3125 0
      vertex 2.5 4.375 0
      vertex 1.875 4.3125 0
    endloop
  endfacet
  facet normal 0 0 1
    outer loop
      vertex 1.875 4.3125 0
      vertex 2.5 4.375 0
      vertex 1.875 4.4375 0
    endloop
  endfacet
  facet normal 0 0 1
    outer loop
      vertex 1.8125 5.625 0
      vertex 1.875 5.0 0
      vertex 1.9375 5.625 0
    endloop
  endfacet
  facet normal 0 0 1
    outer loop
      vertex 1.9375 5.625 0
      vertex 1.875 5.0 0
      vertex 1.9375 4.375 0
    endloop
  endfacet
  facet normal 0 0 1
    outer loop
      vertex 1.9375 4.375 0
      vertex 1.875 5.0 0
      vertex 1.8125 4.375 0
    endloop
  endfacet
  facet normal 0 0 1
    outer loop
      vertex 1.8125 4.375 0
      vertex 1.875 5.0 0
      vertex 1.8125 5.625 0
    endloop
  endfacet
  facet normal 0 0 1
    outer loop
      vertex 1.875 5.6875 0
      vertex 2.5 5.625 0
      vertex 3.125 5.6875 0
    endloop
  endfacet
  facet normal 0 0 1
    outer loop
      vertex 3.125 5.6875 0
      vertex 2.5 5.625 0
      vertex 3.125 5.5625 0
    endloop
  endfacet
  facet normal 0 0 1
    outer loop
      vertex 3.125 5.5625 0
      vertex 2.5 5.625 0
      vertex 1.875 5.5625 0
    endloop
  endfacet
  facet normal 0 0 1
    outer loop
      vertex 1.875 5.5625 0
      vertex 2.5 5.625 0
      vertex 1.875 5.6875 0
    endloop
  endfacet
  facet normal 0 0 1
    outer loop
      vertex -0.6875 8.125 0
      vertex -0.625 7.5 0
      vertex -0.5625 8.125 0
    endloop
  endfacet
  facet normal 0 0 1
    outer loop
      vertex -0.5625 8.125 0
      vertex -0.625 7.5 0
      vertex -0.5625 6.875 0
    endloop
  endfacet
  facet normal 0 0 1
    outer loop
      vertex -0.5625 6.875 0
      vertex -0.625 7.5 0
      vertex -0.6875 6.875 0
    endloop
  endfacet
  facet normal 0 0 1
    outer loop
      vertex -0.6875 6.875 0
      vertex -0.625 7.5 0
      vertex -0.6875 8.125 0
    endloop
  endfacet
  facet normal 0 0 1
    outer loop
      vertex -0.625 8.1875 0
      vertex 0.0 8.125 0
      vertex 0.625 8.1875 0
    endloop
  endfacet
  facet normal 0 0 1
    outer loop
      vertex 0.625 8.1875 0
      vertex 0.0 8.125 0
      vertex 0.625 8.0625 0
    endloop
  endfacet
  facet normal 0 0 1
    outer loop
      vertex 0.625 8.0625 0
      vertex 0.0 8.125 0
      vertex -0.625 8.0625 0
    endloop
  endfacet
  facet normal 0 0 1
    outer loop
      vertex -0.625 8.0625 0
      vertex 0.0 8.125 0
      vertex -0.625 8.1875 0
    endloop
  endfacet
  facet normal 0 0 1
    outer loop
      vertex 0.5625 8.125 0
      vertex 0.625 7.5 0
      vertex 0.6875 8.125 0
    endloop
  endfacet
  facet normal 0 0 1
    outer loop
      vertex 0.6875 8.125 0
      vertex 0.625 7.5 0
      vertex 0.6875 6.875 0
    endloop
  endfacet
  facet normal 0 0 1
    outer loop
      vertex 0.6875 6.875 0
      vertex 0.625 7.5 0
      vertex 0.5625 6.875 0
    endloop
  endfacet
  facet normal 0 0 1
    outer loop
      vertex 0.5625 6.875 0
      vertex 0.625 7.5 0
      vertex 0.5625 8.125 0
    endloop
  endfacet
  facet normal 0 0 1
    outer loop
      vertex 1.8125 8.125 0
      vertex 1.875 7.5 0
      vertex 1.9375 8.125 0
    endloop
  endfacet
  facet normal 0 0 1
    outer loop
      vertex 1.9375 8.125 0
      vertex 1.875 7.5 0
      vertex 1.9375 6.875 0
    endloop
  endfacet
  facet normal 0 0 1
    outer loop
      vertex 1.9375 6.875 0
      vertex 1.875 7.5 0
      vertex 1.8125 6.875 0
    endloop
  endfacet
  facet normal 0 0 1
    outer loop
      vertex 1.8125 6.875 0
      vertex 1.875 7.5 0
      vertex 1.8125 8.125 0
    endloop
  endfacet
  facet normal 0 0 1
    outer loop
      vertex 1.875 8.1875 0
      vertex 2.5 8.125 0
      vertex 3.125 8.1875 0
    endloop
  endfacet
  facet normal 0 0 1
    outer loop
      vertex 3.125 8.1875 0
      vertex 2.5 8.125 0
      vertex 3.125 8.0625 0
    endloop
  endfacet
  facet normal 0 0 1
    outer loop
      vertex 3.125 8.0625 0
      vertex 2.5 8.125 0
      vertex 1.875 8.0625 0
    endloop
  endfacet
  facet normal 0 0 1
    outer loop
      vertex 1.875 8.0625 0
      vertex 2.5 8.125 0
      vertex 1.875 8.1875 0
    endloop
  endfacet
  facet normal 0 0 1
    outer loop
      vertex 3.0625 8.125 0
      vertex 3.125 7.5 0
      vertex 3.1875 8.125 0
    endloop
  endfacet
  facet normal 0 0 1
    outer loop
      vertex 3.1875 8.125 0
      vertex 3.125 7.5 0
      vertex 3.1875 6.875 0
    endloop
  endfacet
  facet normal 0 0 1
    outer loop
      vertex 3.1875 6.875 0
      vertex 3.125 7.5 0
      vertex 3.0625 6.875 0
    endloop
  endfacet
  facet normal 0 0 1
    outer loop
      vertex 3.0625 6.875 0
      vertex 3.125 7.5 0
      vertex 3.0625 8.125 0
    endloop
  endfacet
  facet normal 0 0 1
    outer loop
      vertex -0.6875 6.875 0
      vertex -0.625 6.25 0
      vertex -0.5625 6.875 0
    endloop
  endfacet
  facet normal 0 0 1
    outer loop
      vertex -0.5625 6.875 0
      vertex -0.625 6.25 0
      vertex -0.5625 5.625 0
    endloop
  endfacet
  facet normal 0 0 1
    outer loop
      vertex -0.5625 5.625 0
      vertex -0.625 6.25 0
      vertex -0.6875 5.625 0
    endloop
  endfacet
  facet normal 0 0 1
    outer loop
      vertex -0.6875 5.625 0
      vertex -0.625 6.25 0
      vertex -0.6875 6.875 0
    endloop
  endfacet
  facet normal 0 0 1
    outer loop
      vertex 0.625 6.9375 0
      vertex 1.25 6.875 0
      vertex 1.875 6.9375 0
    endloop
  endfacet
  facet normal 0 0 1
    outer loop
      vertex 1.875 6.9375 0
      vertex 1.25 6.875 0
      vertex 1.875 6.8125 0
    endloop
  endfacet
  facet normal 0 0 1
    outer loop
      vertex 1.875 6.8125 0
      vertex 1.25 6.875 0
      vertex 0.625 6.8125 0
    endloop
  endfacet
  facet normal 0 0 1
    outer loop
      vertex 0.625 6.8125 0
      vertex 1.25 6.875 0
      vertex 0.625 6.9375 0
    endloop
  endfacet
  facet normal 0 0 1
    outer loop
      vertex 3.0625 6.875 0
      vertex 3.125 6.25 0
      vertex 3.1875 6.875 0
    endloop
  endfacet
  facet normal 0 0 1
    outer loop
      vertex 3.1875 6.875 0
      vertex 3.125 6.25 0
      vertex 3.1875 5.625 0
    endloop
  endfacet
  facet normal 0 0 1
    outer loop
      vertex 3.1875 5.625 0
      vertex 3.125 6.25 0
      vertex 3.0625 5.625 0
    endloop
  endfacet
  facet normal 0 0 1
    outer loop
      vertex 3.0625 5.625 0
      vertex 3.125 6.25 0
      vertex 3.0625 6.875 0
    endloop
  endfacet
  facet normal 0 0 1
    outer loop
      vertex 4.375 5.6875 0
      vertex 5.0 5.625 0
      vertex 5.625 5.6875 0
    endloop
  endfacet
  facet normal 0 0 1
    outer loop
      vertex 5.625 5.6875 0
      vertex 5.0 5.625 0
      vertex 5.625 5.5625 0
    endloop
  endfacet
  facet normal 0 0 1
    outer loop
      vertex 5.625 5.5625 0
      vertex 5.0 5.625 0
      vertex 4.375 5.5625 0
    endloop
  endfacet
  facet normal 0 0 1
    outer loop
      vertex 4.375 5.5625 0
      vertex 5.0 5.625 0
      vertex 4.375 5.6875 0
    endloop
  endfacet
  facet normal 0 0 1
    outer loop
      vertex 5.5625 5.625 0
      vertex 5.625 5.0 0
      vertex 5.6875 5.625 0
    endloop
  endfacet
  facet normal 0 0 1
    outer loop
      vertex 5.6875 5.625 0
      vertex 5.625 5.0 0
      vertex 5.6875 4.375 0
    endloop
  endfacet
  facet normal 0 0 1
    outer loop
      vertex 5.6875 4.375 0
      vertex 5.625 5.0 0
      vertex 5.5625 4.375 0
    endloop
  endfacet
  facet normal 0 0 1
    outer loop
      vertex 5.5625 4.375 0
      vertex 5.625 5.0 0
      vertex 5.5625 5.625 0
    endloop
  endfacet
  facet normal 0 0 1
    outer loop
      vertex 4.375 4.4375 0
      vertex 5.0 4.375 0
      vertex 5.625 4.4375 0
    endloop
  endfacet
  facet normal 0 0 1
    outer loop
      vertex 5.625 4.4375 0
      vertex 5.0 4.375 0
      vertex 5.625 4.3125 0
    endloop
  endfacet
  facet normal 0 0 1
    outer loop
      vertex 5.625 4.3125 0
      vertex 5.0 4.375 0
      vertex 4.375 4.3125 0
    endloop
  endfacet
  facet normal 0 0 1
    outer loop
      vertex 4.375 4.3125 0
      vertex 5.0 4.375 0
      vertex 4.375 4.4375 0
    endloop
  endfacet
  facet normal 0 0 1
    outer loop
      vertex 6.875 4.4375 0
      vertex 7.5 4.375 0
      vertex 8.125 4.4375 0
    endloop
  endfacet
  facet normal 0 0 1
    outer loop
      vertex 8.125 4.4375 0
      vertex 7.5 4.375 0
      vertex 8.125 4.3125 0
    endloop
  endfacet
  facet normal 0 0 1
    outer loop
      vertex 8.125 4.3125 0
      vertex 7.5 4.375 0
      vertex 6.875 4.3125 0
    endloop
  endfacet
  facet normal 0 0 1
    outer loop
      vertex 6.875 4.3125 0
      vertex 7.5 4.375 0
      vertex 6.875 4.4375 0
    endloop
  endfacet
  facet normal 0 0 1
    outer loop
      vertex 6.8125 5.625 0
      vertex 6.875 5.0 0
      vertex 6.9375 5.625 0
    endloop
  endfacet
  facet normal 0 0 1
    outer loop
      vertex 6.9375 5.625 0
      vertex 6.875 5.0 0
      vertex 6.9375 4.375 0
    endloop
  endfacet
  facet normal 0 0 1
    outer loop
      vertex 6.9375 4.375 0
      vertex 6.875 5.0 0
      vertex 6.8125 4.375 0
    endloop
  endfacet
  facet normal 0 0 1
    outer loop
      vertex 6.8125 4.375 0
      vertex 6.875 5.0 0
      vertex 6.8125 5.625 0
    endloop
  endfacet
  facet normal 0 0 1
    outer loop
      vertex 6.875 5.6875 0
      vertex 7.5 5.625 0
      vertex 8.125 5.6875 0
    endloop
  endfacet
  facet normal 0 0 1
    outer loop
      vertex 8.125 5.6875 0
      vertex 7.5 5.625 0
      vertex 8.125 5.5625 0
    endloop
  endfacet
  facet normal 0 0 1
    outer loop
      vertex 8.125 5.5625 0
      vertex 7.5 5.625 0
      vertex 6.875 5.5625 0
    endloop
  endfacet
  facet normal 0 0 1
    outer loop
      vertex 6.875 5.5625 0
      vertex 7.5 5.625 0
      vertex 6.875 5.6875 0
    endloop
  endfacet
  facet normal 0 0 1
    outer loop
      vertex 4.3125 8.125 0
      vertex 4.375 7.5 0
      vertex 4.4375 8.125 0
    endloop
  endfacet
  facet normal 0 0 1
    outer loop
      vertex 4.4375 8.125 0
      vertex 4.375 7.5 0
      vertex 4.4375 6.875 0
    endloop
  endfacet
  facet normal 0 0 1
    outer loop
      vertex 4.4375 6.875 0
      vertex 4.375 7.5 0
      vertex 4.3125 6.875 0
    endloop
  endfacet
  facet normal 0 0 1
    outer loop
      vertex 4.3125 6.875 0
      vertex 4.375 7.5 0
      vertex 4.3125 8.125 0
    endloop
  endfacet
  facet normal 0 0 1
    outer loop
      vertex 4.375 8.1875 0
      vertex 5.0 8.125 0
      vertex 5.625 8.1875 0
    endloop
  endfacet
  facet normal 0 0 1
    outer loop
      vertex 5.625 8.1875 0
      vertex 5.0 8.125 0
      vertex 5.625 8.0625 0
    endloop
  endfacet
  facet normal 0 0 1
    outer loop
      vertex 5.625 8.0625 0
      vertex 5.0 8.125 0
      vertex 4.375 8.0625 0
    endloop
  endfacet
  facet normal 0 0 1
    outer loop
      vertex 4.375 8.0625 0
      vertex 5.0 8.125 0
      vertex 4.375 8.1875 0
    endloop
  endfacet
  facet normal 0 0 1
    outer loop
      vertex 5.5625 8.125 0
      vertex 5.625 7.5 0
      vertex 5.6875 8.125 0
    endloop
  endfacet
  facet normal 0 0 1
    outer loop
      vertex 5.6875 8.125 0
      vertex 5.625 7.5 0
      vertex 5.6875 6.875 0
    endloop
  endfacet
  facet normal 0 0 1
    outer loop
      vertex 5.6875 6.875 0
      vertex 5.625 7.5 0
      vertex 5.5625 6.875 0
    endloop
  endfacet
  facet normal 0 0 1
    outer loop
      vertex 5.5625 6.875 0
      vertex 5.625 7.5 0
      vertex 5.5625 8.125 0
    endloop
  endfacet
  facet normal 0 0 1
    outer loop
      vertex 6.8125 8.125 0
      vertex 6.875 7.5 0
      vertex 6.9375 8.125 0
    endloop
  endfacet
  facet normal 0 0 1
    outer loop
      vertex 6.9375 8.125 0
      vertex 6.875 7.5 0
      vertex 6.9375 6.875 0
    endloop
  endfacet
  facet normal 0 0 1
    outer loop
      vertex 6.9375 6.875 0
      vertex 6.875 7.5 0
      vertex 6.8125 6.875 0
    endloop
  endfacet
  facet normal 0 0 1
    outer loop
      vertex 6.8125 6.875 0
      vertex 6.875 7.5 0
      vertex 6.8125 8.125 0
    endloop
  endfacet
  facet normal 0 0 1
    outer loop
      vertex 6.875 8.1875 0
      vertex 7.5 8.125 0
      vertex 8.125 8.1875 0
    endloop
  endfacet
  facet normal 0 0 1
    outer loop
      vertex 8.125 8.1875 0
      vertex 7.5 8.125 0
      vertex 8.125 8.0625 0
    endloop
  endfacet
  facet normal 0 0 1
    outer loop
      vertex 8.125 8.0625 0
      vertex 7.5 8.125 0
      vertex 6.875 8.0625 0
    endloop
  endfacet
  facet normal 0 0 1
    outer loop
      vertex 6.875 8.0625 0
      vertex 7.5 8.125 0
      vertex 6.875 8.1875 0
    endloop
  endfacet
  facet normal 0 0 1
    outer loop
      vertex 8.0625 8.125 0
      vertex 8.125 7.5 0
      vertex 8.1875 8.125 0
    endloop
  endfacet
  facet normal 0 0 1
    outer loop
      vertex 8.1875 8.125 0
      vertex 8.125 7.5 0
      vertex 8.1875 6.875 0
    endloop
  endfacet
  facet normal 0 0 1
    outer loop
      vertex 8.1875 6.875 0
      vertex 8.125 7.5 0
      vertex 8.0625 6.875 0
    endloop
  endfacet
  facet normal 0 0 1
    outer loop
      vertex 8.0625 6.875 0
      vertex 8.125 7.5 0
      vertex 8.0625 8.125 0
    endloop
  endfacet
  facet normal 0 0 1
    outer loop
      vertex 4.3125 6.875 0
      vertex 4.375 6.25 0
      vertex 4.4375 6.875 0
    endloop
  endfacet
  facet normal 0 0 1
    outer loop
      vertex 4.4375 6.875 0
      vertex 4.375 6.25 0
      vertex 4.4375 5.625 0
    endloop
  endfacet
  facet normal 0 0 1
    outer loop
      vertex 4.4375 5.625 0
      vertex 4.375 6.25 0
      vertex 4.3125 5.625 0
    endloop
  endfacet
  facet normal 0 0 1
    outer loop
      vertex 4.3125 5.625 0
      vertex 4.375 6.25 0
      vertex 4.3125 6.875 0
    endloop
  endfacet
  facet normal 0 0 1
    outer loop
      vertex 5.625 6.9375 0
      vertex 6.25 6.875 0
      vertex 6.875 6.9375 0
    endloop
  endfacet
  facet normal 0 0 1
    outer loop
      vertex 6.875 6.9375 0
      vertex 6.25 6.875 0
      vertex 6.875 6.8125 0
    endloop
  endfacet
  facet normal 0 0 1
    outer loop
      vertex 6.875 6.8125 0
      vertex 6.25 6.875 0
      vertex 5.625 6.8125 0
    endloop
  endfacet
  facet normal 0 0 1
    outer loop
      vertex 5.625 6.8125 0
      vertex 6.25 6.875 0
      vertex 5.625 6.9375 0
    endloop
  endfacet
  facet normal 0 0 1
    outer loop
      vertex 8.0625 6.875 0
      vertex 8.125 6.25 0
      vertex 8.1875 6.875 0
    endloop
  endfacet
  facet normal 0 0 1
    outer loop
      vertex 8.1875 6.875 0
      vertex 8.125 6.25 0
      vertex 8.1875 5.625 0
    endloop
  endfacet
  facet normal 0 0 1
    outer loop
      vertex 8.1875 5.625 0
      vertex 8.125 6.25 0
      vertex 8.0625 5.625 0
    endloop
  endfacet
  facet normal 0 0 1
    outer loop
      vertex 8.0625 5.625 0
      vertex 8.125 6.25 0
      vertex 8.0625 6.875 0
    endloop
  endfacet
  facet normal 0 0 1
    outer loop
      vertex -0.6875 4.375 0
      vertex -0.625 3.75 0
      vertex -0.5625 4.375 0
    endloop
  endfacet
  facet normal 0 0 1
    outer loop
      vertex -0.5625 4.375 0
      vertex -0.625 3.75 0
      vertex -0.5625 3.125 0
    endloop
  endfacet
  facet normal 0 0 1
    outer loop
      vertex -0.5625 3.125 0
      vertex -0.625 3.75 0
      vertex -0.6875 3.125 0
    endloop
  endfacet
  facet normal 0 0 1
    outer loop
      vertex -0.6875 3.125 0
      vertex -0.625 3.75 0
      vertex -0.6875 4.375 0
    endloop
  endfacet
  facet normal 0 0 1
    outer loop
      vertex 3.125 4.4375 0
      vertex 3.75 4.375 0
      vertex 4.375 4.4375 0
    endloop
  endfacet
  facet normal 0 0 1
    outer loop
      vertex 4.375 4.4375 0
      vertex 3.75 4.375 0
      vertex 4.375 4.3125 0
    endloop
  endfacet
  facet normal 0 0 1
    outer loop
      vertex 4.375 4.3125 0
      vertex 3.75 4.375 0
      vertex 3.125 4.3125 0
    endloop
  endfacet
  facet normal 0 0 1
    outer loop
      vertex 3.125 4.3125 0
      vertex 3.75 4.375 0
      vertex 3.125 4.4375 0
    endloop
  endfacet
  facet normal 0 0 1
    outer loop
      vertex 8.0625 4.375 0
      vertex 8.125 3.75 0
      vertex 8.1875 4.375 0
    endloop
  endfacet
  facet normal 0 0 1
    outer loop
      vertex 8.1875 4.375 0
      vertex 8.125 3.75 0
      vertex 8.1875 3.125 0
    endloop
  endfacet
  facet normal 0 0 1
    outer loop
      vertex 8.1875 3.125 0
      vertex 8.125 3.75 0
      vertex 8.0625 3.125 0
    endloop
  endfacet
  facet normal 0 0 1
    outer loop
      vertex 8.0625 3.125 0
      vertex 8.125 3.75 0
      vertex 8.0625 4.375 0
    endloop
  endfacet
endsolid Object01